{"title":"The Saturdays - Disco Love [Music Video] 1080p [Sbyky]","uid":9270549,"size":103000611,"categoryP":"video","categoryS":"music_videos","magnet":"?xt=urn:btih:486ea40187f8f500a8f44365bd1dc0fbc3a546d1&amp;dn=The+Saturdays+-+Disco+Love+%5BMusic+Video%5D+1080p+%5BSbyky%5D&amp;tr=udp%3A%2F%2Ftracker.openbittorrent.com%3A80&amp;tr=udp%3A%2F%2Fopen.demonii.com%3A1337&amp;tr=udp%3A%2F%2Ftracker.coppersurfer.tk%3A6969&amp;tr=udp%3A%2F%2Fexodus.desync.com%3A6969","seeders":0,"leechers":1,"uploader":"Sbyky","files":1,"time":1385769020,"description":"\n\nGeneral\nComplete name                            : The Saturdays - Disco Love [Music Video] 1080p [Sbyky].MP4\nFormat                                   : MPEG-4\nFormat profile                           : Base Media\nCodec ID                                 : isom\nFile size                                : 98.2 MiB\nDuration                                 : 3mn 23s\nOverall bit rate mode                    : Variable\nOverall bit rate                         : 4 045 Kbps\nEncoded date                             : UTC 2013-08-22 17:17:09\nTagged date                              : UTC 2013-08-22 17:17:09\n\nVideo\nID                                       : 1\nFormat                                   : AVC\nFormat/Info                              : Advanced Video Codec\nFormat profile                           : &lt;a class=&quot;__cf_email__&quot; href=&quot;/cdn-cgi/l/email-protection&quot; data-cfemail=&quot;6820010f0028245c4658&quot;&gt;[email&amp;#160;protected]&lt;/a&gt;&lt;script cf-hash='f9e31' type=&quot;text/javascript&quot;&gt;\n/* &lt;![CDATA[ */!function(){try{var t=&quot;currentScript&quot;in document?document.currentScript:function(){for(var t=document.getElementsByTagName(&quot;script&quot;),e=t.length;e--;)if(t[e].getAttribute(&quot;cf-hash&quot;))return t[e]}();if(t&amp;&amp;t.previousSibling){var e,r,n,i,c=t.previousSibling,a=c.getAttribute(&quot;data-cfemail&quot;);if(a){for(e=&quot;&quot;,r=parseInt(a.substr(0,2),16),n=2;a.length-n;n+=2)i=parseInt(a.substr(n,2),16)^r,e+=String.fromCharCode(i);e=document.createTextNode(e),c.parentNode.replaceChild(e,c)}}}catch(u){}}();/* ]]&gt; */&lt;/script&gt;\nFormat settings, CABAC                   : Yes\nFormat settings, ReFrames                : 2 frames\nCodec ID                                 : avc1\nCodec ID/Info                            : Advanced Video Coding\nDuration                                 : 3mn 23s\nBit rate                                 : 3 790 Kbps\nWidth                                    : 1 920 pixels\nHeight                                   : 1 080 pixels\nDisplay aspect ratio                     : 16:9\nFrame rate mode                          : Constant\nFrame rate                               : 25.000 fps\nColor space                              : YUV\nChroma subsampling                       : 4:2:0\nBit depth                                : 8 bits\nScan type                                : Progressive\nBits/(Pixel*Frame)                       : 0.073\nStream size                              : 92.0 MiB (94%)\nEncoded date                             : UTC 2013-08-22 17:17:09\nTagged date                              : UTC 2013-08-22 17:17:09\n\nAudio\nID                                       : 2\nFormat                                   : AAC\nFormat/Info                              : Advanced Audio Codec\nFormat profile                           : LC\nCodec ID                                 : 40\nDuration                                 : 3mn 23s\nBit rate mode                            : Variable\nBit rate                                 : 254 Kbps\nChannel(s)                               : 2 channels\nChannel positions                        : Front: L R\nSampling rate                            : 44.1 KHz\nCompression mode                         : Lossy\nDelay relative to video                  : 40ms\nStream size                              : 6.16 MiB (6%)\nEncoded date                             : UTC 2013-08-22 17:16:40\nTagged date                              : UTC 2013-08-22 17:16:40\n\nShared By Sbyky\n","torrent":{"xt":"urn:btih:486ea40187f8f500a8f44365bd1dc0fbc3a546d1","amp;dn":"The+Saturdays+-+Disco+Love+%5BMusic+Video%5D+1080p+%5BSbyky%5D","amp;tr":["udp%3A%2F%2Ftracker.openbittorrent.com%3A80","udp%3A%2F%2Fopen.demonii.com%3A1337","udp%3A%2F%2Ftracker.coppersurfer.tk%3A6969","udp%3A%2F%2Fexodus.desync.com%3A6969"],"infoHash":"486ea40187f8f500a8f44365bd1dc0fbc3a546d1","infoHashBuffer":{"type":"Buffer","data":[72,110,164,1,135,248,245,0,168,244,67,101,189,29,192,251,195,165,70,209]},"announce":[],"urlList":[]}}